HIERARCHY
ROOT Hips
{
    OFFSET 0.000000 0.000000 0.000000
    CHANNELS 6 Xposition Yposition Zposition Zrotation Xrotation Yrotation
        JOINT Spine1
        {
            OFFSET -0.000000 23.269398 0.000000
            CHANNELS 3 Zrotation Xrotation Yrotation
            JOINT Neck
            {
                OFFSET -0.000000 18.032967 0.000000
                CHANNELS 3 Zrotation Xrotation Yrotation
                JOINT Head
                {
                    OFFSET -0.000000 13.091072 1.689171
                    CHANNELS 3 Zrotation Xrotation Yrotation
                    End Site
                    {
                        OFFSET -0.000000 16.891708 0.000000
                    }
                }
            }
            JOINT LeftShoulder
            {
                OFFSET 3.336773 14.146137 -0.012206
                CHANNELS 3 Zrotation Xrotation Yrotation
                JOINT LeftArm
                {
                    OFFSET 11.765518 0.000000 0.000000
                    CHANNELS 3 Zrotation Xrotation Yrotation
                    JOINT LeftForeArm
                    {
                        OFFSET 25.163450 0.000000 0.000000
                        CHANNELS 3 Zrotation Xrotation Yrotation
                        JOINT LeftHand
                        {
                            OFFSET 21.783554 0.000000 0.000000
                            CHANNELS 3 Zrotation Xrotation Yrotation
                            End Site
                            {
                                OFFSET 12.668781 0.000000 0.000000
                            }
                        }
                    }
                }
            }
            JOINT RightShoulder
            {
                OFFSET -3.409204 14.146137 -0.012206
                CHANNELS 3 Zrotation Xrotation Yrotation
                JOINT RightArm
                {
                    OFFSET -11.765518 0.000000 0.000000
                    CHANNELS 3 Zrotation Xrotation Yrotation
                    JOINT RightForeArm
                    {
                        OFFSET -25.163450 0.000000 0.000000
                        CHANNELS 3 Zrotation Xrotation Yrotation
                        JOINT RightHand
                        {
                            OFFSET -21.783554 0.000000 0.000000
                            CHANNELS 3 Zrotation Xrotation Yrotation
                            End Site
                            {
                                OFFSET -12.668781 0.000000 0.000000
                            }
                        }
                    }
                }
            }
        }
        JOINT LeftUpLeg
    {
        OFFSET 8.445854 0.000000 0.000000
        CHANNELS 3 Zrotation Xrotation Yrotation
        JOINT LeftLeg
        {
            OFFSET -0.000000 -40.674755 0.000000
            CHANNELS 3 Zrotation Xrotation Yrotation
            JOINT LeftFoot
            {
                OFFSET -0.000000 -37.111794 0.000000
                CHANNELS 3 Zrotation Xrotation Yrotation
                JOINT LeftToeBase
                {
                    OFFSET -0.000000 -5.489805 12.668781
                    CHANNELS 3 Zrotation Xrotation Yrotation
                    End Site
                    {
                        OFFSET -0.000000 0.000000 3.378341
                    }
                }
            }
        }
    }
    JOINT RightUpLeg
    {
        OFFSET -8.445854 0.000000 0.000000
        CHANNELS 3 Zrotation Xrotation Yrotation
        JOINT RightLeg
        {
            OFFSET -0.000000 -40.674755 0.000000
            CHANNELS 3 Zrotation Xrotation Yrotation
            JOINT RightFoot
            {
                OFFSET -0.000000 -37.111794 0.000000
                CHANNELS 3 Zrotation Xrotation Yrotation
                JOINT RightToeBase
                {
                    OFFSET -0.000000 -5.489805 12.668781
                    CHANNELS 3 Zrotation Xrotation Yrotation
                    End Site
                    {
                        OFFSET -0.000000 0.000000 3.378341
                    }
                }
            }
        }
    }
}
MOTION
Frames:    8
Frame Time:    0.008333
12.779411    84.945999    147.512573    1.898842    0.102954    2.855227    -2.500899    3.123997    -3.855772    -0.961450    1.720726    -3.349039    3.424122    8.716229    -4.297485    -0.582449    8.923691    10.149566    -56.771538    34.484428    -29.232004    4.635923    -2.610376    -26.259445    -4.719217    -1.310105    -5.313772    -2.298539    8.859026    -3.164429    51.198853    34.126595    34.004349    -2.322479    -1.922518    22.579157    -0.903809    -1.492312    4.215141    3.673508    -4.190099    -0.751631    1.512833    7.564269    -1.287482    -7.137364    -5.109796    12.496027    -1.416904    -1.661198    0.404270    -0.295159    4.094272    0.955993    -5.393296    -1.558200    0.678947    5.334977    -6.877144    3.562921    0.169849    0.036022    -0.608818    
12.769146    84.945129    147.525406    1.909231    0.119210    2.873560    -2.534897    3.101855    -3.803823    -0.947881    1.744270    -3.311002    3.286506    8.590548    -4.224967    -0.578795    8.916617    10.140540    -52.971771    40.175941    -29.553646    6.390750    -6.427667    -29.640944    -4.515948    -4.605780    -3.488650    -2.297660    8.830317    -3.137947    51.128769    34.276840    34.062077    -2.383245    -1.971879    22.737520    -0.830069    -1.523256    4.193274    3.670610    -4.190872    -0.763924    1.511739    7.544376    -1.287636    -7.150695    -5.097560    12.495787    -1.430569    -1.686699    0.386745    -0.294437    4.102867    0.947021    -5.395776    -1.584054    0.697728    5.315114    -6.867311    3.525301    0.144004    0.086349    -0.619323    
12.760735    84.945648    147.536987    1.917141    0.140357    2.885001    -2.570575    3.073935    -3.751259    -0.909836    1.765092    -3.282156    3.110787    8.467417    -4.150967    -0.563037    8.900334    10.134517    -52.992790    40.029106    -29.529024    6.442959    -6.314628    -29.607248    -4.402378    -4.481862    -3.547155    -2.295126    8.790344    -3.097423    51.100861    34.400909    34.084579    -2.424899    -2.015968    22.885597    -0.792947    -1.554008    4.141641    3.664654    -4.201417    -0.771970    1.518840    7.538804    -1.308541    -7.154989    -5.121974    12.502074    -1.413161    -1.658786    0.398708    -0.480648    4.026701    -0.248852    -4.973087    -1.562173    1.896981    5.062551    -6.911764    3.533397    0.139269    0.091927    -0.614511    
12.753701    84.944176    147.550842    1.924356    0.156129    2.897456    -2.598142    3.056676    -3.692152    -0.894661    1.756129    -3.248105    2.955612    8.379195    -4.080082    -0.561789    8.886273    10.121960    -53.044842    39.797611    -29.482761    6.515126    -6.098675    -29.539721    -4.368759    -4.249225    -3.602548    -2.298695    8.782514    -3.087784    51.045635    34.517258    34.149830    -2.468337    -2.032215    23.011988    -0.744175    -1.556677    4.108822    3.657427    -4.211465    -0.793979    1.523945    7.539558    -1.289862    -7.164952    -5.106723    12.502180    -1.423197    -1.680846    0.378288    -0.480091    4.027547    -0.256272    -4.971191    -1.574748    1.883616    5.036820    -6.899194    3.527482    0.117821    0.121036    -0.599839    
12.747279    84.943703    147.561646    1.932676    0.178978    2.903028    -2.615512    3.031097    -3.630866    -0.900533    1.759446    -3.207656    2.816559    8.269609    -4.008748    -0.570049    8.871228    10.117126    -53.093063    39.560535    -29.426132    6.542850    -5.895447    -29.461775    -4.308585    -4.043027    -3.648623    -2.307260    8.767022    -3.072501    51.051258    34.562798    34.171719    -2.474257    -2.024995    23.146963    -0.747005    -1.544727    4.020430    3.644219    -4.233362    -0.796751    1.538708    7.556508    -1.296252    -7.169273    -5.132991    12.504292    -1.426448    -1.677331    0.395834    -0.489431    4.016198    -0.265014    -4.961014    -1.581986    1.898433    4.995924    -6.881049    3.522592    0.137520    0.092028    -0.609114    
12.712780    84.942337    147.586426    1.897903    0.171854    2.899206    -2.592049    3.053457    -3.545749    -0.898181    1.738110    -3.188619    2.679758    8.179083    -3.959271    -0.583251    8.870378    10.105627    -53.167843    39.217228    -29.382977    6.542709    -5.639557    -29.322319    -4.358525    -3.788886    -3.764451    -2.310376    8.758483    -3.074641    50.547768    35.188690    34.421696    -2.612482    -2.396398    23.377205    -0.742578    -1.881993    3.969156    3.720047    -4.213574    -0.756826    1.512199    7.556978    -1.321958    -7.179085    -5.148465    12.501024    -1.413723    -1.674562    0.364625    -0.408668    4.039424    -0.268736    -4.997908    -1.587681    1.885924    4.970176    -6.887209    3.530689    0.117759    0.127734    -0.612004    
12.702978    84.942093    147.602081    1.892319    0.188067    2.897242    -2.593092    3.048810    -3.460238    -0.885306    1.716911    -3.172781    2.532117    8.087662    -3.909553    -0.688292    9.414518    10.590096    -57.568386    31.227890    -30.315193    4.102524    -0.206642    -24.212284    -4.245505    0.914586    -6.492365    -2.318488    8.763791    -3.093889    50.463390    35.269920    34.543484    -2.598207    -2.409641    23.405493    -0.727741    -1.897016    3.961451    3.731521    -4.229968    -0.758786    1.512579    7.580430    -1.328753    -7.175583    -5.167410    12.505373    -1.422603    -1.667741    0.406245    -0.398757    4.033813    -0.278349    -4.994472    -1.589368    1.876908    4.964565    -6.896299    3.559377    0.102078    0.160057    -0.621632    
12.692057    84.941711    147.620956    1.882968    0.193215    2.892658    -2.591849    3.055417    -3.383910    -0.859526    1.715765    -3.158933    2.360408    7.963785    -3.855024    -0.692555    9.417228    10.582642    -52.659138    38.465244    -30.476370    6.354465    -5.106514    -28.701221    -4.444558    -3.330372    -3.954513    -2.313675    8.770903    -3.096797    50.393337    35.313633    34.638821    -2.587407    -2.394949    23.423531    -0.703697    -1.883125    3.935347    3.747690    -4.234617    -0.765322    1.510517    7.605888    -1.302226    -7.177238    -5.175337    12.501790    -1.424236    -1.677626    0.388645    -0.381450    4.038132    -0.286716    -4.990168    -1.585545    1.891313    4.953437    -6.900661    3.543433    0.094866    0.160296    -0.599096    
